# xmcd
#
# Track frame offsets: 
#        150
#        23925
#        40750
#        54413
#        76650
#        93350
#        108588
#        128550
#        148975
#        167850
#        194825
#        210600
#        237788
#        259788
#        280499
#        300366
#
# Disc length: 4341 seconds
#
# Revision: 0
# Processed by: cddbd v1.5.1PL0 Copyright (c) Steve Scherf et al.
# Submitted via: ExactAudioCopy v0.95a5
#
DISCID=df10f310
DTITLE=Nanci Griffith - Sound Of Loneliness (Bootleg)
DYEAR=1994
DGENRE=Folk
TTITLE0=From A Distance
TTITLE1=Say It Isn't So
TTITLE2=Always Will
TTITLE3=Across The Great Divide
TTITLE4=Trouble In The Fields
TTITLE5=Don't Forget About Me
TTITLE6=Southbound Train
TTITLE7=Time Of Inconvenience
TTITLE8=Speed Of The Sound Of Loneliness
TTITLE9=Tecumseh Valley
TTITLE10=Are You Tired Of Me, My Darling?
TTITLE11=Goin' Back To Georgia
TTITLE12=This Heart
TTITLE13=It's A Hard Life
TTITLE14=Wall Of Death
TTITLE15=Who Knows Where The Time Goes
EXTD=
EXTT0=
EXTT1=
EXTT2=
EXTT3=
EXTT4=
EXTT5=
EXTT6=
EXTT7=
EXTT8=
EXTT9=
EXTT10=
EXTT11=
EXTT12=
EXTT13=
EXTT14=
EXTT15=
PLAYORDER=
